<svg xmlns="http://www.w3.org/2000/svg" viewBox="0 0 300 400" width="300" height="400">
  <rect width="300" height="400" fill="#1a2e26"/>
  <rect x="0" y="0" width="300" height="400" fill="url(#grad)"/>
  <defs>
    <linearGradient id="grad" x1="0" y1="0" x2="1" y2="1">
      <stop offset="0%" stop-color="#1a4a3a" stop-opacity="0.9"/>
      <stop offset="100%" stop-color="#0a1a14" stop-opacity="1"/>
    </linearGradient>
  </defs>
  <!-- film strip top -->
  <rect x="60" y="40" width="180" height="12" rx="2" fill="none" stroke="rgba(255,255,255,0.15)" stroke-width="1"/>
  <rect x="68" y="43" width="14" height="6" rx="1" fill="rgba(255,255,255,0.12)"/>
  <rect x="88" y="43" width="14" height="6" rx="1" fill="rgba(255,255,255,0.12)"/>
  <rect x="108" y="43" width="14" height="6" rx="1" fill="rgba(255,255,255,0.12)"/>
  <rect x="128" y="43" width="14" height="6" rx="1" fill="rgba(255,255,255,0.12)"/>
  <rect x="148" y="43" width="14" height="6" rx="1" fill="rgba(255,255,255,0.12)"/>
  <rect x="168" y="43" width="14" height="6" rx="1" fill="rgba(255,255,255,0.12)"/>
  <rect x="188" y="43" width="14" height="6" rx="1" fill="rgba(255,255,255,0.12)"/>
  <rect x="208" y="43" width="14" height="6" rx="1" fill="rgba(255,255,255,0.12)"/>
  <!-- play icon -->
  <circle cx="150" cy="185" r="44" fill="none" stroke="rgba(255,255,255,0.2)" stroke-width="1.5"/>
  <polygon points="140,168 140,202 172,185" fill="rgba(255,255,255,0.25)"/>
  <!-- text -->
  <text x="150" y="262" font-family="Arial, sans-serif" font-size="13" font-weight="700" fill="rgba(255,255,255,0.6)" text-anchor="middle" letter-spacing="2">МАСТЕР-КЛАСС</text>
  <text x="150" y="282" font-family="Arial, sans-serif" font-size="11" fill="rgba(255,255,255,0.35)" text-anchor="middle" letter-spacing="1">МИКРОДРАМЫ</text>
  <!-- film strip bottom -->
  <rect x="60" y="348" width="180" height="12" rx="2" fill="none" stroke="rgba(255,255,255,0.15)" stroke-width="1"/>
  <rect x="68" y="351" width="14" height="6" rx="1" fill="rgba(255,255,255,0.12)"/>
  <rect x="88" y="351" width="14" height="6" rx="1" fill="rgba(255,255,255,0.12)"/>
  <rect x="108" y="351" width="14" height="6" rx="1" fill="rgba(255,255,255,0.12)"/>
  <rect x="128" y="351" width="14" height="6" rx="1" fill="rgba(255,255,255,0.12)"/>
  <rect x="148" y="351" width="14" height="6" rx="1" fill="rgba(255,255,255,0.12)"/>
  <rect x="168" y="351" width="14" height="6" rx="1" fill="rgba(255,255,255,0.12)"/>
  <rect x="188" y="351" width="14" height="6" rx="1" fill="rgba(255,255,255,0.12)"/>
  <rect x="208" y="351" width="14" height="6" rx="1" fill="rgba(255,255,255,0.12)"/>
</svg>
